<?xml version="1.0" encoding="UTF-8"?>
<!DOCTYPE svg PUBLIC "-//W3C//DTD SVG 1.1//EN" "http://www.w3.org/Graphics/SVG/1.1/DTD/svg11.dtd">
<!-- Creator: CorelDRAW 2021 (64-Bit) -->
<svg xmlns="http://www.w3.org/2000/svg" xml:space="preserve" width="3125px" height="3158px" version="1.1" style="shape-rendering:geometricPrecision; text-rendering:geometricPrecision; image-rendering:optimizeQuality; fill-rule:evenodd; clip-rule:evenodd"
viewBox="0 0 488.76 493.87"
 xmlns:xlink="http://www.w3.org/1999/xlink"
 xmlns:xodm="http://www.corel.com/coreldraw/odm/2003">
 <defs>
  <style type="text/css">
   <![CDATA[
    .fil3 {fill:none}
    .fil0 {fill:black}
    .fil2 {fill:black;fill-rule:nonzero}
    .fil4 {fill:black;fill-rule:nonzero}
    .fil1 {fill:white;fill-rule:nonzero}
   ]]>
  </style>
 </defs>
 <g id="Layer_x0020_1">
  <metadata id="CorelCorpID_0Corel-Layer"/>
  <g id="_1989835472800">
   <g>
    <path class="fil0" d="M259.6 180.02l64.93 -9.13c4.21,-0.59 7.98,2.27 8.57,6.48l14.26 101.43c0.23,1.66 -0.06,3.25 -0.77,4.6 -0.39,0.82 -26.55,29.14 -28.45,30.27 -1.32,1.11 -2.26,3.26 -5.86,3.77l-129.74 18.23c-4.2,0.59 -7.98,-2.26 -8.57,-6.47l-16.84 -119.82c-0.34,-2.48 0.29,-4.81 1.62,-6.65 0.45,-0.7 1,-1.34 1.64,-1.9 0.45,-0.65 0.98,-1.24 1.59,-1.76l0.94 -0.85c1.55,-2.06 1.97,-1.95 2.51,-2.57 1.87,-2.47 4.36,-4.36 6.09,-6.45 0.6,-0.86 1.36,-1.62 2.24,-2.23 0.41,-0.54 0.87,-1.03 1.4,-1.47l0.33 -0.37c0.63,-0.92 1.43,-1.74 2.36,-2.39 0.47,-0.67 1.03,-1.27 1.67,-1.8l0.93 -0.89c0.49,-0.71 1.09,-1.35 1.77,-1.9 0.46,-0.67 1.02,-1.28 1.65,-1.82 3.15,-2.9 5.49,-6.87 10.15,-7.52l50.42 -7.09c4.2,-0.59 8.17,1.85 10,5.62l5.16 12.68z"/>
    <path class="fil1" d="M181.86 330.82c-1.65,0.23 -2.85,-0.9 -3.05,-2.3l-16.84 -119.82c-0.32,-2.29 1.32,-4.48 3.61,-4.8l50.29 -7.07c1.91,-0.26 3.75,0.78 4.67,2.73l6.55 16.13 69.26 -9.74c1.66,-0.23 2.86,0.9 3.05,2.3l14.26 101.44c0.23,1.66 -0.9,2.86 -2.3,3.06l-129.48 18.2 -0.02 -0.13z"/>
    <path class="fil2" d="M216.3 201.72l5.05 11.91 2.97 7.26 7.51 -1.06 63.15 -8.87 13.61 96.84 -125.15 17.59 -2.71 -19.26 -11.21 -79.75 -2.49 -17.74 49.27 -6.92zm-1 -9.88l-50.29 7.07c-4.97,0.7 -8.57,5.5 -7.88,10.47l2.59 18.38 11.22 79.87 3.03 21.57c0.59,4.21 4.37,7.06 8.57,6.47l129.74 -18.23c4.2,-0.6 7.05,-4.38 6.46,-8.59l-14.26 -101.44c-0.59,-4.21 -4.37,-7.06 -8.57,-6.47l-65.32 9.18 -5.15 -12.68c-1.83,-3.77 -5.94,-6.19 -10.14,-5.6z"/>
    <path class="fil2" d="M241.16 294.51c-8.28,1.16 -15.69,-4.43 -16.85,-12.72 -0.31,-2.17 1.11,-4.06 3.28,-4.37 2.16,-0.3 4.05,1.12 4.36,3.29 0.57,4.09 4.06,6.72 8.13,6.15 3.95,-0.56 6.68,-4.2 6.13,-8.15 -0.31,-2.17 1.11,-4.06 3.28,-4.37 2.16,-0.3 4.05,1.13 4.36,3.29 1.14,8.17 -4.55,15.74 -12.69,16.88z"/>
    <path class="fil2" d="M224.3 268.78c-2.17,0.3 -4.06,-1.13 -4.36,-3.3 -0.56,-3.95 -4.19,-6.69 -8.14,-6.14 -3.94,0.56 -6.68,4.19 -6.12,8.15 0.3,2.17 -1.12,4.06 -3.28,4.36 -2.17,0.31 -4.06,-1.12 -4.36,-3.29 -1.15,-8.16 4.54,-15.73 12.69,-16.87 8.15,-1.15 15.7,4.55 16.85,12.72 0.29,2.04 -1.12,4.06 -3.28,4.37z"/>
    <path class="fil2" d="M271.02 262.21c-2.16,0.3 -4.05,-1.12 -4.35,-3.29 -0.58,-4.09 -4.19,-6.7 -8.14,-6.15 -3.95,0.56 -6.68,4.2 -6.12,8.15 0.3,2.17 -1.12,4.06 -3.29,4.37 -2.16,0.3 -4.05,-1.13 -4.35,-3.29 -1.15,-8.17 4.54,-15.74 12.69,-16.88 8.14,-1.15 15.7,4.56 16.84,12.72 0.29,2.05 -1.11,4.06 -3.28,4.37z"/>
   </g>
   <circle class="fil3" cx="247.97" cy="249.94" r="213.98"/>
   <path class="fil4" d="M38.76 223.14c-0.36,2.68 -1.28,5.02 -2.79,7.01 -1.5,2 -3.43,3.48 -5.79,4.44 -2.35,0.96 -5.01,1.25 -7.97,0.86 -3,-0.4 -5.52,-1.37 -7.53,-2.91 -2.02,-1.55 -3.5,-3.47 -4.41,-5.78 -0.92,-2.32 -1.2,-4.81 -0.85,-7.49 0.32,-2.4 1.13,-4.43 2.42,-6.09 1.3,-1.66 3.1,-2.85 5.38,-3.55 2.28,-0.7 5.09,-0.83 8.45,-0.39 3.32,0.44 6,1.27 8.04,2.52 2.05,1.24 3.48,2.82 4.31,4.74 0.82,1.92 1.07,4.13 0.74,6.64zm-6.59 -2.32c0.17,-1.34 0.02,-2.6 -0.47,-3.78 -0.49,-1.17 -1.29,-2.18 -2.38,-2.98 -1.1,-0.81 -2.46,-1.32 -4.08,-1.54 -1.67,-0.22 -3.12,-0.07 -4.37,0.42 -1.24,0.5 -2.26,1.26 -3.04,2.27 -0.78,1.01 -1.26,2.18 -1.44,3.53 -0.18,1.37 -0.03,2.65 0.47,3.83 0.49,1.18 1.27,2.17 2.35,2.97 1.08,0.81 2.45,1.32 4.1,1.54 1.63,0.21 3.07,0.08 4.34,-0.42 1.28,-0.5 2.29,-1.25 3.07,-2.27 0.78,-1 1.27,-2.2 1.45,-3.57zm7.34 -6.62l-5.82 -0.77 -8.46 -1.28 -8.48 -0.59 -16.58 -2.18 1.1 -8.26 39.27 5.18 -1.03 7.9z"/>
   <path id="_1" class="fil4" d="M23.97 161.94l27.27 9.05 -2.5 7.55 -3.14 -1.04c1.71,2.74 1.95,5.97 0.72,9.69 -0.85,2.56 -2.2,4.7 -4.03,6.39 -1.85,1.71 -4.02,2.79 -6.55,3.27 -2.51,0.48 -5.18,0.24 -7.98,-0.68 -2.81,-0.93 -5.08,-2.34 -6.81,-4.23 -1.74,-1.89 -2.84,-4.07 -3.3,-6.52 -0.46,-2.47 -0.26,-4.98 0.58,-7.54 1.16,-3.48 3.17,-5.84 6.01,-7.07l-2.89 -0.96 2.62 -7.91zm16.31 21.73c0.67,-1.99 0.53,-3.88 -0.4,-5.65 -0.93,-1.77 -2.54,-3.04 -4.85,-3.8 -2.29,-0.77 -4.35,-0.71 -6.15,0.16 -1.81,0.86 -3.04,2.29 -3.7,4.28 -0.68,2.03 -0.54,3.93 0.39,5.7 0.93,1.77 2.55,3.03 4.84,3.8 2.3,0.76 4.35,0.72 6.16,-0.15 1.8,-0.87 3.04,-2.32 3.71,-4.34z"/>
   <path id="_2" class="fil4" d="M60.23 153.68c-1.56,3.01 -3.53,4.96 -5.93,5.84 -2.41,0.89 -5.12,0.54 -8.15,-1.02l-22.4 -11.58 3.83 -7.4 22.3 11.52c1.07,0.56 2.04,0.7 2.93,0.44 0.88,-0.27 1.56,-0.9 2.07,-1.88 0.61,-1.16 0.81,-2.33 0.6,-3.48l6.25 0.71c0.15,1.03 0.07,2.16 -0.2,3.35 -0.28,1.2 -0.71,2.37 -1.3,3.5zm-26.61 3.33l-5.69 -2.94 9.15 -17.7 5.69 2.95 -9.15 17.69z"/>
   <path id="_3" class="fil4" d="M58.5 102.49l23.26 16.85 -4.67 6.44 -2.68 -1.94c0.81,3.14 0.07,6.28 -2.24,9.45 -1.58,2.2 -3.51,3.83 -5.77,4.89 -2.27,1.06 -4.68,1.44 -7.22,1.14 -2.55,-0.32 -5.02,-1.33 -7.41,-3.07 -2.4,-1.73 -4.14,-3.76 -5.22,-6.08 -1.08,-2.33 -1.47,-4.73 -1.17,-7.22 0.3,-2.48 1.25,-4.81 2.84,-7.01 2.15,-2.97 4.76,-4.61 7.86,-4.92l-2.48 -1.79 4.9 -6.74zm8.98 25.63c1.23,-1.7 1.67,-3.54 1.32,-5.51 -0.35,-1.97 -1.51,-3.66 -3.47,-5.08 -1.95,-1.43 -3.93,-1.99 -5.91,-1.71 -1.98,0.28 -3.59,1.26 -4.83,2.96 -1.25,1.73 -1.7,3.59 -1.34,5.56 0.35,1.96 1.51,3.66 3.46,5.08 1.97,1.42 3.94,1.99 5.92,1.71 1.98,-0.28 3.6,-1.28 4.85,-3.01z"/>
   <polygon id="_4" class="fil4" points="86.58,113.34 56.67,87.36 62.13,81.07 92.05,107.05 "/>
   <path id="_5" class="fil4" d="M100.41 60.21l18.71 21.81 -6.03 5.17 -2.16 -2.51c0.06,3.24 -1.39,6.14 -4.37,8.68 -2.05,1.76 -4.31,2.9 -6.76,3.41 -2.45,0.51 -4.87,0.31 -7.28,-0.58 -2.4,-0.88 -4.57,-2.45 -6.5,-4.69 -1.92,-2.25 -3.14,-4.62 -3.66,-7.13 -0.51,-2.51 -0.33,-4.94 0.54,-7.29 0.87,-2.34 2.34,-4.4 4.39,-6.16 2.78,-2.39 5.71,-3.38 8.78,-2.97l-1.98 -2.3 6.32 -5.44zm2.79 27.03c1.59,-1.37 2.45,-3.05 2.56,-5.05 0.12,-2 -0.62,-3.92 -2.19,-5.75 -1.58,-1.84 -3.37,-2.85 -5.35,-3.05 -2,-0.18 -3.79,0.4 -5.39,1.77 -1.62,1.4 -2.48,3.09 -2.6,5.09 -0.11,2 0.62,3.92 2.19,5.75 1.58,1.84 3.37,2.85 5.36,3.04 1.99,0.19 3.8,-0.41 5.42,-1.8z"/>
   <path id="_6" class="fil4" d="M135.51 71.52c-2.86,1.81 -5.55,2.48 -8.06,2.03 -2.52,-0.45 -4.69,-2.12 -6.52,-5.02l-13.46 -21.3 7.04 -4.45 13.41 21.21c0.64,1.03 1.41,1.65 2.3,1.86 0.9,0.22 1.81,0.03 2.74,-0.56 1.12,-0.7 1.88,-1.61 2.28,-2.7l5.03 3.77c-0.39,0.97 -1.02,1.9 -1.86,2.79 -0.86,0.89 -1.82,1.68 -2.9,2.37zm-24.63 -10.6l-3.42 -5.41 16.83 -10.64 3.43 5.42 -16.84 10.63z"/>
   <path id="_7" class="fil4" d="M155.11 60.38c-3.01,1.54 -5.75,1.98 -8.22,1.3 -2.46,-0.67 -4.48,-2.53 -6.04,-5.56l-11.52 -22.42 7.41 -3.81 11.47 22.32c0.56,1.08 1.27,1.76 2.13,2.06 0.88,0.29 1.8,0.18 2.78,-0.32 1.18,-0.6 2.01,-1.43 2.51,-2.49l4.68 4.2c-0.49,0.93 -1.19,1.81 -2.11,2.62 -0.92,0.81 -1.95,1.51 -3.09,2.1zm-23.59 -12.73l-2.93 -5.71 17.71 -9.1 2.93 5.7 -17.71 9.11z"/>
   <path id="_8" class="fil4" d="M178 50.95c-3.12,1.02 -6.05,1.32 -8.8,0.88 -2.75,-0.44 -5.11,-1.5 -7.1,-3.19 -1.98,-1.69 -3.42,-3.89 -4.32,-6.59 -0.9,-2.74 -1.06,-5.37 -0.5,-7.9 0.57,-2.54 1.75,-4.76 3.55,-6.69 1.8,-1.93 4.09,-3.35 6.87,-4.26 2.66,-0.89 5.26,-1.11 7.78,-0.69 2.52,0.42 4.75,1.48 6.7,3.18 1.95,1.7 3.42,4.01 4.39,6.96 0.1,0.3 0.19,0.66 0.29,1.05 0.09,0.4 0.18,0.78 0.26,1.12l-22.16 7.33 -1.53 -4.61 18.01 -5.95 -2.6 2.37c-0.46,-1.42 -1.16,-2.55 -2.08,-3.41 -0.92,-0.86 -1.99,-1.42 -3.2,-1.68 -1.21,-0.25 -2.48,-0.15 -3.84,0.3 -1.35,0.44 -2.44,1.13 -3.28,2.06 -0.83,0.93 -1.36,2.03 -1.58,3.28 -0.23,1.25 -0.1,2.61 0.39,4.06l0.39 1.23c0.5,1.48 1.26,2.68 2.29,3.6 1.03,0.91 2.25,1.46 3.65,1.65 1.39,0.2 2.9,0.03 4.52,-0.51 1.45,-0.48 2.66,-1.12 3.61,-1.92 0.95,-0.8 1.74,-1.8 2.36,-2.98l5.72 3.18c-0.78,1.83 -2,3.44 -3.63,4.83 -1.65,1.38 -3.7,2.48 -6.16,3.3z"/>
   <path id="_9" class="fil4" d="M250.93 39.09c-2.45,-0.09 -4.8,-0.46 -7.04,-1.13 -2.23,-0.67 -4,-1.46 -5.28,-2.4l2.97 -5.88c1.29,0.86 2.82,1.58 4.61,2.16 1.77,0.58 3.53,0.9 5.28,0.96 1.92,0.06 3.29,-0.12 4.1,-0.56 0.82,-0.43 1.25,-1.06 1.27,-1.88 0.02,-0.67 -0.26,-1.19 -0.88,-1.54 -0.61,-0.37 -1.43,-0.66 -2.46,-0.87 -1.02,-0.21 -2.15,-0.43 -3.37,-0.65 -1.21,-0.22 -2.45,-0.5 -3.68,-0.84 -1.24,-0.35 -2.36,-0.84 -3.37,-1.48 -1.01,-0.64 -1.81,-1.49 -2.4,-2.54 -0.59,-1.06 -0.85,-2.4 -0.8,-4.04 0.07,-1.82 0.65,-3.4 1.74,-4.75 1.1,-1.35 2.66,-2.39 4.68,-3.12 2.03,-0.74 4.41,-1.05 7.19,-0.96 1.96,0.07 3.94,0.35 5.96,0.85 2.01,0.5 3.68,1.18 5.01,2.04l-2.98 5.83c-1.36,-0.87 -2.74,-1.47 -4.13,-1.82 -1.4,-0.35 -2.75,-0.55 -4.07,-0.6 -1.85,-0.07 -3.21,0.14 -4.08,0.61 -0.88,0.47 -1.32,1.09 -1.35,1.88 -0.03,0.71 0.27,1.25 0.87,1.63 0.62,0.37 1.43,0.68 2.46,0.93 1.03,0.25 2.15,0.48 3.37,0.68 1.22,0.21 2.45,0.49 3.68,0.85 1.24,0.37 2.36,0.86 3.35,1.48 0.99,0.62 1.79,1.45 2.4,2.48 0.61,1.04 0.88,2.38 0.82,4.02 -0.06,1.77 -0.65,3.33 -1.76,4.66 -1.12,1.33 -2.69,2.35 -4.73,3.07 -2.04,0.71 -4.5,1.02 -7.38,0.93z"/>
   <path id="_10" class="fil4" d="M292.12 13.49c2.24,0.41 4.16,1.22 5.76,2.43 1.61,1.22 2.76,2.84 3.44,4.87 0.68,2.02 0.75,4.47 0.23,7.34l-2.95 16.19 -8.2 -1.5 2.72 -14.92c0.42,-2.28 0.23,-4.05 -0.57,-5.32 -0.8,-1.27 -2.11,-2.07 -3.93,-2.4 -1.3,-0.24 -2.51,-0.18 -3.64,0.17 -1.13,0.36 -2.1,1.04 -2.88,2.06 -0.78,1.02 -1.33,2.4 -1.65,4.15l-2.55 13.97 -8.2 -1.49 7.12 -38.98 8.19 1.5 -3.38 18.54 -1.41 -2.71c1.36,-1.69 3.08,-2.88 5.16,-3.55 2.07,-0.68 4.32,-0.79 6.74,-0.35z"/>
   <path id="_11" class="fil4" d="M342.65 28.21l-9.07 27.26 -7.55 -2.5 1.04 -3.14c-2.74,1.7 -5.97,1.94 -9.69,0.71 -2.56,-0.86 -4.7,-2.21 -6.39,-4.04 -1.7,-1.84 -2.78,-4.02 -3.26,-6.55 -0.48,-2.51 -0.24,-5.18 0.69,-7.98 0.93,-2.81 2.34,-5.08 4.23,-6.81 1.9,-1.74 4.07,-2.83 6.53,-3.29 2.46,-0.46 4.97,-0.26 7.53,0.59 3.48,1.16 5.84,3.17 7.07,6.01l0.97 -2.89 7.9 2.63zm-21.74 16.3c1.99,0.66 3.87,0.53 5.64,-0.41 1.78,-0.92 3.04,-2.53 3.81,-4.84 0.77,-2.29 0.71,-4.35 -0.15,-6.15 -0.86,-1.81 -2.29,-3.04 -4.28,-3.71 -2.03,-0.67 -3.93,-0.54 -5.7,0.39 -1.77,0.93 -3.04,2.54 -3.81,4.84 -0.76,2.3 -0.71,4.35 0.15,6.16 0.86,1.8 2.31,3.04 4.34,3.72z"/>
   <path id="_12" class="fil4" d="M340.24 59.62l13.21 -25.51 7.06 3.66 -3.72 7.21 0.08 -2.6c1.69,-1.41 3.62,-2.16 5.77,-2.22 2.17,-0.07 4.44,0.53 6.85,1.77l-3.54 6.83c-0.3,-0.19 -0.57,-0.36 -0.81,-0.52 -0.25,-0.14 -0.52,-0.28 -0.8,-0.44 -2.02,-1.04 -3.96,-1.32 -5.81,-0.81 -1.84,0.52 -3.39,1.98 -4.66,4.42l-6.23 12.04 -7.4 -3.83z"/>
   <path id="_13" class="fil4" d="M371.44 78.98c-2.66,-1.91 -4.62,-4.12 -5.87,-6.6 -1.26,-2.49 -1.79,-5.03 -1.58,-7.62 0.19,-2.6 1.13,-5.05 2.8,-7.37 1.68,-2.34 3.72,-4.02 6.1,-5.04 2.39,-1.03 4.88,-1.38 7.5,-1.05 2.62,0.33 5.11,1.34 7.48,3.05 2.28,1.65 3.99,3.62 5.12,5.9 1.14,2.29 1.59,4.73 1.36,7.3 -0.23,2.58 -1.25,5.12 -3.07,7.64 -0.18,0.25 -0.41,0.54 -0.68,0.85 -0.27,0.32 -0.52,0.6 -0.75,0.87l-18.93 -13.65 2.84 -3.93 15.37 11.08 -3.44 -0.71c0.87,-1.21 1.39,-2.44 1.55,-3.69 0.15,-1.25 -0.03,-2.44 -0.53,-3.57 -0.5,-1.13 -1.33,-2.11 -2.48,-2.94 -1.15,-0.83 -2.36,-1.31 -3.61,-1.45 -1.24,-0.12 -2.44,0.09 -3.58,0.65 -1.15,0.55 -2.17,1.45 -3.07,2.69l-0.74 1.04c-0.92,1.28 -1.44,2.59 -1.58,3.97 -0.13,1.37 0.13,2.68 0.8,3.92 0.66,1.25 1.68,2.37 3.06,3.37 1.24,0.89 2.47,1.49 3.68,1.79 1.21,0.3 2.47,0.36 3.8,0.17l0.79 6.5c-1.95,0.44 -3.96,0.4 -6.05,-0.12 -2.09,-0.52 -4.18,-1.53 -6.29,-3.05z"/>
   <path id="_14" class="fil4" d="M405.75 109.82c-2.32,-2.46 -3.5,-4.97 -3.53,-7.53 -0.03,-2.55 1.2,-5 3.69,-7.35l18.36 -17.26 5.7 6.08 -18.29 17.18c-0.88,0.83 -1.34,1.7 -1.38,2.62 -0.04,0.92 0.32,1.78 1.07,2.59 0.9,0.96 1.93,1.52 3.09,1.72l-2.75 5.65c-1.03,-0.21 -2.06,-0.64 -3.1,-1.3 -1.03,-0.66 -1.99,-1.46 -2.86,-2.4zm5.72 -26.18l4.67 -4.39 13.64 14.51 -4.68 4.39 -13.63 -14.51z"/>
   <path id="_15" class="fil4" d="M420.84 128.72c-1.79,-2.48 -2.86,-5.05 -3.21,-7.72 -0.34,-2.67 -0.01,-5.22 0.98,-7.63 1.01,-2.41 2.66,-4.45 4.97,-6.12 2.34,-1.69 4.81,-2.63 7.42,-2.81 2.61,-0.2 5.11,0.3 7.53,1.48 2.41,1.18 4.51,3 6.3,5.49 1.77,2.46 2.84,5.01 3.21,7.69 0.37,2.67 0.06,5.2 -0.94,7.6 -0.99,2.38 -2.68,4.43 -5.05,6.14 -2.31,1.67 -4.76,2.6 -7.36,2.81 -2.59,0.2 -5.1,-0.28 -7.54,-1.47 -2.43,-1.18 -4.54,-3 -6.31,-5.46zm5.54 -4c0.81,1.13 1.81,1.96 2.97,2.47 1.17,0.52 2.42,0.69 3.76,0.52 1.34,-0.18 2.68,-0.75 4,-1.71 1.36,-0.98 2.33,-2.07 2.91,-3.28 0.57,-1.21 0.8,-2.44 0.68,-3.72 -0.13,-1.27 -0.6,-2.47 -1.41,-3.59 -0.82,-1.13 -1.8,-1.95 -2.97,-2.46 -1.17,-0.53 -2.41,-0.71 -3.76,-0.56 -1.33,0.16 -2.68,0.72 -4.04,1.7 -1.33,0.96 -2.28,2.06 -2.86,3.29 -0.59,1.23 -0.81,2.48 -0.68,3.75 0.12,1.27 0.59,2.47 1.4,3.59z"/>
   <path id="_16" class="fil4" d="M444.72 173.22c-1.22,-3.03 -1.7,-5.94 -1.43,-8.71 0.26,-2.77 1.18,-5.2 2.74,-7.29 1.56,-2.09 3.66,-3.66 6.3,-4.72 2.68,-1.08 5.3,-1.41 7.86,-1 2.56,0.41 4.87,1.45 6.9,3.13 2.03,1.67 3.6,3.87 4.68,6.57 1.05,2.61 1.44,5.19 1.18,7.73 -0.27,2.54 -1.18,4.84 -2.76,6.89 -1.57,2.05 -3.8,3.66 -6.67,4.81 -0.3,0.12 -0.64,0.24 -1.03,0.36 -0.4,0.12 -0.77,0.23 -1.11,0.33l-8.7 -21.66 4.51 -1.81 7.07 17.59 -2.53 -2.43c1.38,-0.56 2.48,-1.32 3.27,-2.29 0.8,-0.98 1.29,-2.08 1.47,-3.3 0.18,-1.22 0,-2.49 -0.52,-3.82 -0.54,-1.32 -1.3,-2.36 -2.27,-3.14 -0.99,-0.77 -2.12,-1.24 -3.38,-1.38 -1.27,-0.15 -2.61,0.07 -4.03,0.64l-1.19 0.48c-1.46,0.59 -2.61,1.42 -3.45,2.51 -0.85,1.08 -1.33,2.33 -1.43,3.73 -0.11,1.41 0.16,2.91 0.79,4.49 0.57,1.42 1.29,2.58 2.15,3.49 0.86,0.9 1.9,1.62 3.11,2.17l-2.8 5.9c-1.88,-0.66 -3.57,-1.77 -5.05,-3.32 -1.48,-1.55 -2.71,-3.53 -3.68,-5.95z"/>
   <path id="_17" class="fil4" d="M486 213.48l-28.01 6.4 -1.77 -7.75 3.23 -0.74c-2.89,-1.45 -4.78,-4.09 -5.65,-7.91 -0.6,-2.64 -0.56,-5.16 0.14,-7.56 0.68,-2.4 1.98,-4.46 3.9,-6.18 1.91,-1.72 4.3,-2.9 7.18,-3.56 2.88,-0.66 5.56,-0.63 8.01,0.08 2.47,0.72 4.53,2.01 6.21,3.87 1.66,1.86 2.8,4.11 3.4,6.75 0.82,3.58 0.33,6.63 -1.46,9.16l2.96 -0.68 1.86 8.12zm-25.21 -10.11c0.46,2.04 1.56,3.58 3.27,4.61 1.72,1.03 3.76,1.28 6.12,0.74 2.36,-0.54 4.08,-1.65 5.18,-3.32 1.1,-1.67 1.41,-3.53 0.94,-5.58 -0.47,-2.09 -1.57,-3.65 -3.29,-4.68 -1.72,-1.03 -3.75,-1.27 -6.11,-0.74 -2.36,0.54 -4.08,1.66 -5.18,3.33 -1.1,1.67 -1.41,3.55 -0.93,5.64z"/>
   <path id="_18" class="fil4" d="M458.32 227.67l28.63 -2.35 0.65 7.93 -8.08 0.66 2.24 -1.31c2.1,0.68 3.74,1.92 4.95,3.72 1.19,1.79 1.91,4.03 2.13,6.73l-7.67 0.63c0.01,-0.35 0.02,-0.67 0.01,-0.96 -0.01,-0.28 -0.03,-0.59 -0.05,-0.91 -0.19,-2.27 -0.99,-4.05 -2.39,-5.35 -1.42,-1.29 -3.49,-1.83 -6.22,-1.6l-13.52 1.11 -0.68 -8.3z"/>
   <path id="_19" class="fil4" d="M487.59 270.21c-0.19,2.27 -0.8,4.27 -1.84,5.98 -1.05,1.72 -2.56,3.03 -4.5,3.91 -1.95,0.88 -4.37,1.19 -7.28,0.96l-16.4 -1.32 0.67 -8.3 15.12 1.22c2.3,0.19 4.04,-0.19 5.23,-1.11 1.18,-0.92 1.85,-2.3 1.99,-4.16 0.11,-1.3 -0.07,-2.51 -0.54,-3.6 -0.47,-1.09 -1.24,-1.97 -2.33,-2.65 -1.09,-0.68 -2.52,-1.09 -4.29,-1.23l-14.16 -1.14 0.67 -8.3 28.64 2.3 -0.64 7.93 -7.93 -0.64 2.51 -1.29c1.83,1.18 3.19,2.77 4.06,4.77 0.88,2 1.21,4.22 1.02,6.67z"/>
   <path id="_20" class="fil4" d="M452.05 377.85c-1.13,1.98 -2.53,3.5 -4.19,4.58 -1.66,1.09 -3.56,1.6 -5.69,1.55 -2.13,-0.05 -4.45,-0.79 -6.98,-2.25l-14.28 -8.17 4.14 -7.23 13.16 7.54c2.01,1.14 3.73,1.58 5.16,1.29 1.44,-0.29 2.59,-1.18 3.45,-2.7 0.61,-1.05 0.91,-2.13 0.91,-3.24 -0.01,-1.1 -0.36,-2.16 -1.04,-3.18 -0.7,-1.01 -1.79,-1.93 -3.27,-2.79l-12.51 -7.16 4.14 -7.23 13.16 7.54c2.01,1.14 3.72,1.58 5.15,1.31 1.43,-0.27 2.58,-1.16 3.44,-2.68 0.6,-1.05 0.9,-2.13 0.9,-3.23 0,-1.11 -0.35,-2.17 -1.04,-3.19 -0.69,-1 -1.78,-1.93 -3.26,-2.79l-12.52 -7.16 4.14 -7.23 24.94 14.27 -3.96 6.91 -6.81 -3.89 2.73 -0.16c1.21,1.83 1.8,3.8 1.77,5.9 -0.03,2.09 -0.63,4.16 -1.8,6.2 -1.31,2.28 -3.03,3.95 -5.17,5.01 -2.14,1.04 -4.56,1.17 -7.25,0.36l2.15 -2.15c1.46,1.95 2.25,4.17 2.33,6.66 0.1,2.5 -0.54,4.93 -1.9,7.31z"/>
   <path id="_21" class="fil4" d="M406.3 389.41c2.01,-2.32 4.27,-3.94 6.79,-4.9 2.52,-0.94 5.07,-1.2 7.65,-0.78 2.58,0.42 4.94,1.57 7.09,3.44 2.18,1.89 3.66,4.08 4.44,6.58 0.78,2.49 0.87,5.05 0.28,7.66 -0.6,2.61 -1.91,5.08 -3.91,7.39 -1.98,2.29 -4.24,3.91 -6.76,4.88 -2.52,0.97 -5.05,1.25 -7.6,0.83 -2.56,-0.43 -4.93,-1.6 -7.14,-3.51 -2.15,-1.87 -3.62,-4.04 -4.42,-6.52 -0.79,-2.49 -0.89,-5.04 -0.29,-7.69 0.6,-2.64 1.89,-5.1 3.87,-7.38zm5.16 4.47c-0.91,1.05 -1.48,2.2 -1.72,3.46 -0.24,1.25 -0.13,2.51 0.36,3.77 0.48,1.27 1.33,2.44 2.57,3.52 1.27,1.09 2.55,1.79 3.86,2.07 1.31,0.29 2.56,0.22 3.77,-0.19 1.21,-0.42 2.26,-1.15 3.17,-2.19 0.92,-1.05 1.49,-2.2 1.73,-3.45 0.24,-1.26 0.13,-2.52 -0.32,-3.78 -0.46,-1.27 -1.31,-2.46 -2.58,-3.55 -1.24,-1.08 -2.52,-1.75 -3.86,-2.04 -1.32,-0.28 -2.6,-0.22 -3.8,0.19 -1.21,0.42 -2.27,1.15 -3.18,2.19z"/>
   <path id="_22" class="fil4" d="M396.56 439.19c-1.78,1.41 -3.66,2.32 -5.64,2.72 -1.97,0.4 -3.94,0.19 -5.91,-0.64 -1.97,-0.83 -3.86,-2.38 -5.66,-4.67l-10.2 -12.91 6.54 -5.16 9.4 11.9c1.43,1.82 2.88,2.85 4.37,3.08 1.48,0.24 2.95,-0.22 4.4,-1.37 1.04,-0.81 1.79,-1.76 2.28,-2.85 0.47,-1.08 0.59,-2.25 0.35,-3.51 -0.25,-1.26 -0.92,-2.58 -2.03,-3.98l-8.8 -11.14 6.54 -5.17 17.8 22.54 -6.24 4.93 -4.94 -6.24 2.67 0.96c0.38,2.15 0.14,4.22 -0.73,6.23 -0.87,2 -2.27,3.76 -4.2,5.28z"/>
   <path id="_23" class="fil4" d="M350.02 434.65c2.85,-1.63 5.65,-2.5 8.44,-2.62 2.79,-0.12 5.32,0.45 7.59,1.71 2.29,1.26 4.13,3.12 5.55,5.59 1.43,2.5 2.12,5.05 2.07,7.64 -0.05,2.6 -0.77,5.02 -2.14,7.27 -1.39,2.25 -3.34,4.1 -5.87,5.55 -2.44,1.39 -4.94,2.13 -7.49,2.23 -2.56,0.08 -4.96,-0.51 -7.21,-1.78 -2.25,-1.28 -4.14,-3.26 -5.69,-5.94 -0.16,-0.29 -0.32,-0.61 -0.49,-0.98 -0.17,-0.38 -0.33,-0.73 -0.48,-1.06l20.25 -11.6 2.41 4.22 -16.44 9.42 2.06 -2.84c0.75,1.3 1.65,2.28 2.72,2.93 1.08,0.66 2.24,0.99 3.47,1 1.24,0.01 2.47,-0.34 3.71,-1.05 1.24,-0.7 2.17,-1.6 2.8,-2.68 0.63,-1.08 0.93,-2.26 0.9,-3.53 -0.03,-1.27 -0.43,-2.57 -1.19,-3.9l-0.64 -1.12c-0.77,-1.35 -1.76,-2.38 -2.96,-3.06 -1.2,-0.7 -2.49,-1 -3.9,-0.91 -1.41,0.09 -2.85,0.56 -4.33,1.41 -1.33,0.75 -2.38,1.63 -3.16,2.6 -0.77,0.98 -1.35,2.1 -1.72,3.39l-6.23 -1.96c0.39,-1.96 1.26,-3.78 2.6,-5.47 1.33,-1.68 3.12,-3.17 5.37,-4.46z"/>
   <path id="_24" class="fil4" d="M321.73 447.57c3.17,-1.21 5.93,-1.35 8.32,-0.42 2.37,0.93 4.17,3 5.4,6.19l9.05 23.53 -7.77 2.98 -9.01 -23.42c-0.44,-1.13 -1.07,-1.89 -1.91,-2.27 -0.83,-0.39 -1.77,-0.38 -2.79,0.01 -1.24,0.47 -2.15,1.21 -2.77,2.2l-4.2 -4.67c0.59,-0.87 1.38,-1.66 2.38,-2.38 1.01,-0.7 2.11,-1.29 3.3,-1.75zm22.1 15.19l2.29 5.98 -18.59 7.15 -2.29 -5.98 18.59 -7.15z"/>
   <path id="_25" class="fil4" d="M311.08 451.85l7.73 27.66 -8.02 2.25 -7.74 -27.68 8.03 -2.23zm4.78 32.64c1.48,-0.41 2.8,-0.31 3.97,0.28 1.16,0.6 1.92,1.54 2.28,2.8 0.35,1.27 0.18,2.46 -0.5,3.58 -0.69,1.11 -1.77,1.87 -3.24,2.29 -1.47,0.41 -2.79,0.34 -3.94,-0.2 -1.16,-0.55 -1.91,-1.46 -2.26,-2.73 -0.37,-1.33 -0.23,-2.57 0.44,-3.69 0.66,-1.13 1.75,-1.91 3.25,-2.33z"/>
   <polygon id="_26" class="fil4" points="297.53,455.89 298.41,460.84 285.22,483.58 283.31,481.1 301.08,477.94 302.2,484.25 277.81,488.59 276.93,483.65 290.13,460.9 292.09,463.37 273.43,466.7 272.3,460.38 "/>
   <path id="_27" class="fil4" d="M253.05 461c3.27,-0.11 6.16,0.44 8.67,1.64 2.52,1.21 4.49,2.89 5.91,5.08 1.42,2.18 2.18,4.7 2.27,7.54 0.09,2.88 -0.49,5.46 -1.76,7.72 -1.27,2.26 -3.03,4.07 -5.3,5.4 -2.28,1.34 -4.88,2.06 -7.79,2.15 -2.81,0.09 -5.36,-0.42 -7.66,-1.55 -2.3,-1.12 -4.14,-2.77 -5.53,-4.95 -1.39,-2.18 -2.13,-4.82 -2.23,-7.92 -0.01,-0.32 -0.01,-0.69 0.02,-1.1 0.02,-0.41 0.05,-0.79 0.07,-1.15l23.33 -0.74 0.15 4.87 -18.95 0.6 3.16 -1.55c0.05,1.5 0.39,2.78 1.03,3.87 0.64,1.08 1.51,1.92 2.59,2.51 1.09,0.59 2.35,0.86 3.76,0.82 1.43,-0.05 2.67,-0.41 3.73,-1.06 1.08,-0.66 1.89,-1.56 2.46,-2.69 0.57,-1.15 0.83,-2.49 0.78,-4.01l-0.04 -1.28c-0.05,-1.57 -0.44,-2.94 -1.17,-4.11 -0.73,-1.17 -1.74,-2.04 -3.02,-2.63 -1.28,-0.58 -2.78,-0.84 -4.49,-0.78 -1.53,0.04 -2.86,0.31 -4.01,0.82 -1.13,0.49 -2.17,1.22 -3.11,2.17l-4.57 -4.66c1.26,-1.54 2.88,-2.73 4.85,-3.6 1.96,-0.86 4.25,-1.33 6.85,-1.41z"/>
   <path id="_28" class="fil4" d="M216.92 448.2c1.47,0.28 2.88,0.77 4.23,1.48 1.35,0.72 2.42,1.57 3.18,2.54l-4.06 5.28c-0.52,-0.67 -1.17,-1.24 -1.94,-1.7 -0.76,-0.48 -1.55,-0.78 -2.35,-0.93 -1.16,-0.21 -2.13,-0.1 -2.91,0.32 -0.78,0.41 -1.57,1.2 -2.36,2.36l-2.11 3.2 -0.79 0.78 -14.59 22.52 -7.88 -1.43 18.25 -27.67c1.32,-2.12 2.69,-3.71 4.1,-4.79 1.41,-1.08 2.87,-1.76 4.38,-2.02 1.52,-0.27 3.13,-0.25 4.85,0.06zm-6.57 8.64l7.25 31.66 -8.45 -1.54 -5.46 -25.43 6.66 -4.69z"/>
   <path id="_29" class="fil4" d="M175.27 448.27c2.86,1.11 5.15,2.68 6.9,4.73 1.75,2.05 2.86,4.36 3.33,6.93 0.48,2.57 0.21,5.19 -0.82,7.84 -1.04,2.69 -2.61,4.83 -4.69,6.4 -2.08,1.59 -4.45,2.54 -7.11,2.86 -2.67,0.33 -5.43,-0.06 -8.29,-1.17 -2.82,-1.09 -5.11,-2.66 -6.88,-4.69 -1.77,-2.05 -2.88,-4.34 -3.35,-6.89 -0.46,-2.54 -0.17,-5.18 0.88,-7.9 1.02,-2.66 2.58,-4.78 4.64,-6.36 2.06,-1.6 4.44,-2.55 7.13,-2.89 2.68,-0.33 5.44,0.05 8.26,1.14zm-2.47 6.37c-1.29,-0.49 -2.57,-0.64 -3.83,-0.45 -1.26,0.2 -2.4,0.74 -3.44,1.62 -1.02,0.89 -1.83,2.08 -2.42,3.61 -0.61,1.57 -0.82,3.01 -0.65,4.33 0.18,1.33 0.66,2.49 1.46,3.49 0.8,0.99 1.84,1.74 3.14,2.25 1.29,0.5 2.57,0.65 3.83,0.45 1.26,-0.2 2.42,-0.73 3.45,-1.58 1.04,-0.87 1.86,-2.08 2.47,-3.64 0.59,-1.53 0.79,-2.96 0.6,-4.31 -0.18,-1.35 -0.67,-2.53 -1.47,-3.52 -0.8,-1 -1.84,-1.75 -3.14,-2.25z"/>
   <path id="_30" class="fil4" d="M145.04 434.18c2.07,1.19 3.68,2.64 4.84,4.38 1.16,1.73 1.71,3.68 1.66,5.85 -0.06,2.17 -0.82,4.53 -2.3,7.09l-8.09 14.07 -7.23 -4.15 7.49 -13.01c1.19,-2.07 1.62,-3.84 1.3,-5.32 -0.32,-1.47 -1.28,-2.67 -2.88,-3.6 -1.12,-0.64 -2.24,-0.97 -3.38,-0.98 -1.14,-0.03 -2.24,0.33 -3.32,1.04 -1.07,0.73 -2.04,1.84 -2.91,3.35l-7.08 12.32 -7.22 -4.16 14.32 -24.9 6.86 3.94 -3.95 6.85 -0.1 -2.71c1.83,-1.25 3.8,-1.85 5.93,-1.79 2.13,0.05 4.15,0.62 6.06,1.73z"/>
   <path id="_31" class="fil4" d="M124.04 421.43l-17.83 22.53 -6.24 -4.93 5.04 -6.37 -0.58 2.54c-1.93,1.06 -3.96,1.42 -6.1,1.07 -2.12,-0.35 -4.25,-1.36 -6.37,-3.04l4.77 -6.03c0.26,0.25 0.49,0.47 0.7,0.66 0.21,0.19 0.45,0.39 0.7,0.58 1.79,1.42 3.63,2.05 5.55,1.91 1.9,-0.15 3.7,-1.3 5.41,-3.45l8.42 -10.64 6.53 5.17z"/>
   <path id="_32" class="fil4" d="M87.49 386.84c1.77,2.05 2.88,4.31 3.37,6.75 0.48,2.45 0.3,4.87 -0.55,7.26 -0.84,2.41 -2.4,4.58 -4.67,6.53 -2.29,1.97 -4.69,3.2 -7.19,3.68 -2.5,0.48 -4.91,0.29 -7.24,-0.56 -2.34,-0.86 -4.39,-2.32 -6.16,-4.37 -1.57,-1.84 -2.54,-3.79 -2.92,-5.87 -0.37,-2.06 -0.07,-4.19 0.94,-6.36 0.99,-2.17 2.77,-4.36 5.33,-6.56 2.55,-2.19 4.95,-3.63 7.24,-4.32 2.29,-0.7 4.42,-0.72 6.41,-0.05 1.97,0.67 3.79,1.95 5.44,3.87zm-6.13 3.36c-0.88,-1.02 -1.92,-1.75 -3.13,-2.16 -1.2,-0.42 -2.47,-0.49 -3.8,-0.21 -1.34,0.27 -2.63,0.95 -3.87,2.01 -1.26,1.1 -2.13,2.27 -2.6,3.54 -0.45,1.27 -0.57,2.52 -0.33,3.78 0.23,1.25 0.78,2.4 1.67,3.42 0.9,1.05 1.96,1.79 3.17,2.21 1.2,0.42 2.46,0.49 3.78,0.23 1.32,-0.27 2.61,-0.95 3.89,-2.03 1.24,-1.08 2.1,-2.25 2.57,-3.53 0.48,-1.28 0.59,-2.54 0.37,-3.8 -0.24,-1.24 -0.81,-2.4 -1.72,-3.46zm-0.04 -9.88l-4.46 3.83 -6.58 5.44 -6.09 5.95 -12.67 10.89 -5.43 -6.31 30.04 -25.83 5.19 6.03z"/>
   <path id="_33" class="fil4" d="M32.41 356.79l24.93 -14.3 3.95 6.91 -2.87 1.64c3.19,0.56 5.76,2.53 7.71,5.93 1.34,2.35 2.03,4.77 2.07,7.27 0.05,2.51 -0.6,4.86 -1.93,7.05 -1.32,2.19 -3.26,4.03 -5.83,5.5 -2.56,1.47 -5.12,2.22 -7.69,2.25 -2.57,0.04 -4.92,-0.59 -7.05,-1.88 -2.15,-1.31 -3.89,-3.12 -5.23,-5.47 -1.83,-3.19 -2.25,-6.24 -1.27,-9.19l-2.64 1.51 -4.15 -7.22zm27.07 2.33c-1.05,-1.82 -2.54,-2.97 -4.48,-3.47 -1.94,-0.48 -3.96,-0.13 -6.06,1.08 -2.1,1.2 -3.43,2.77 -3.99,4.69 -0.56,1.92 -0.32,3.79 0.73,5.61 1.06,1.86 2.56,3.03 4.5,3.52 1.94,0.49 3.97,0.13 6.07,-1.08 2.09,-1.2 3.43,-2.77 3.98,-4.69 0.57,-1.92 0.31,-3.8 -0.75,-5.66z"/>
   <path id="_34" class="fil4" d="M50.32 324.31c1.26,3.14 1.44,5.91 0.55,8.3 -0.9,2.4 -2.94,4.23 -6.11,5.5l-23.39 9.4 -3.11 -7.73 23.3 -9.36c1.12,-0.45 1.87,-1.09 2.23,-1.93 0.38,-0.84 0.36,-1.78 -0.05,-2.8 -0.5,-1.22 -1.24,-2.14 -2.25,-2.72l4.62 -4.27c0.87,0.56 1.68,1.35 2.4,2.34 0.73,0.99 1.33,2.08 1.81,3.27zm-14.86 22.32l-5.94 2.38 -7.43 -18.48 5.95 -2.39 7.42 18.49z"/>
   <path id="_35" class="fil4" d="M11.17 291.71l28.01 -6.4 1.77 7.75 -3.23 0.74c2.89,1.45 4.78,4.09 5.65,7.91 0.6,2.64 0.56,5.16 -0.14,7.56 -0.69,2.4 -1.99,4.46 -3.9,6.18 -1.91,1.72 -4.3,2.9 -7.18,3.56 -2.88,0.66 -5.56,0.63 -8.01,-0.08 -2.47,-0.72 -4.54,-2.01 -6.21,-3.87 -1.66,-1.87 -2.8,-4.11 -3.4,-6.75 -0.82,-3.58 -0.33,-6.64 1.46,-9.16l-2.96 0.68 -1.86 -8.12zm25.21 10.11c-0.47,-2.04 -1.56,-3.58 -3.27,-4.61 -1.72,-1.03 -3.76,-1.28 -6.12,-0.74 -2.36,0.54 -4.09,1.65 -5.18,3.32 -1.1,1.67 -1.41,3.53 -0.94,5.58 0.47,2.09 1.57,3.64 3.29,4.68 1.71,1.03 3.74,1.27 6.1,0.74 2.36,-0.54 4.09,-1.66 5.19,-3.33 1.09,-1.67 1.41,-3.55 0.93,-5.64z"/>
   <circle class="fil0" cx="465.05" cy="308.16" r="7.49"/>
   <circle class="fil0" cx="215.2" cy="27.42" r="7.49"/>
   <circle class="fil0" cx="23.16" cy="261.44" r="7.49"/>
  </g>
 </g>
</svg>
