<?xml version="1.0" encoding="UTF-8" standalone="no"?>
<!-- Created with Inkscape (http://www.inkscape.org/) -->

<svg
   width="60.91357mm"
   height="63.66066mm"
   viewBox="0 0 60.91357 63.66066"
   version="1.1"
   id="svg5"
   xml:space="preserve"
   inkscape:version="1.2.1 (9c6d41e4, 2022-07-14)"
   sodipodi:docname="logo-raw.svg"
   inkscape:export-filename="desights/brand assets/desights-white.svg"
   inkscape:export-xdpi="96"
   inkscape:export-ydpi="96"
   xmlns:inkscape="http://www.inkscape.org/namespaces/inkscape"
   xmlns:sodipodi="http://sodipodi.sourceforge.net/DTD/sodipodi-0.dtd"
   xmlns="http://www.w3.org/2000/svg"
   xmlns:svg="http://www.w3.org/2000/svg"><sodipodi:namedview
     id="namedview7"
     pagecolor="#ffffff"
     bordercolor="#000000"
     borderopacity="0.25"
     inkscape:showpageshadow="2"
     inkscape:pageopacity="0.0"
     inkscape:pagecheckerboard="0"
     inkscape:deskcolor="#d1d1d1"
     inkscape:document-units="mm"
     showgrid="false"
     showguides="true"
     inkscape:zoom="0.80152865"
     inkscape:cx="367.42292"
     inkscape:cy="412.96091"
     inkscape:window-width="1440"
     inkscape:window-height="900"
     inkscape:window-x="0"
     inkscape:window-y="0"
     inkscape:window-maximized="0"
     inkscape:current-layer="g21119" /><defs
     id="defs2" /><g
     inkscape:label="logo-white-bg"
     inkscape:groupmode="layer"
     id="g21119"
     style="display:inline"
     inkscape:export-filename="desights/logo-white.png"
     inkscape:export-xdpi="166.79369"
     inkscape:export-ydpi="166.79369"
     transform="translate(-79.859256,-48.040444)"><g
       id="g21117"
       inkscape:label="logo"
       transform="matrix(0.62515343,0,0,0.64430501,77.839547,0.87444292)"><rect
         style="display:none;fill:#ffffff;fill-opacity:1;stroke-width:0.158088"
         id="rect21109"
         width="60.913574"
         height="63.660648"
         x="72.032875"
         y="48.04044"
         inkscape:label="rect14478"
         transform="matrix(1.5996073,0,0,1.55206,-111.99357,-1.3571878)" /><path
         id="path21111"
         style="fill:#6366f1;fill-opacity:0.972549;stroke-width:0.264583"
         d="m 56.603356,98.797181 c -3.97e-4,2.387749 -0.0736,3.862289 -0.0743,6.167329 8.218301,0.65573 14.624967,8.14054 14.629993,16.33104 -0.0074,8.20339 -6.544772,14.74968 -14.777578,15.38664 -0.0046,1.56549 0.17227,3.50691 0.16762,4.65555 -0.0027,0.67895 -0.005,1.01717 -0.0078,1.56838 12.074493,-0.70102 21.49642,-10.36524 21.500542,-22.05344 -9.77e-4,-11.66725 -9.429845,-21.134207 -21.480677,-21.865629 -0.0211,0.25316 0.0422,-0.18987 0.0422,-0.18987 z"
         sodipodi:nodetypes="ccccccccc" /><path
         id="path21113"
         style="fill:#6366f1;fill-opacity:0.972549;stroke-width:0.186089"
         d="m 56.368136,111.34256 c -2.6e-4,0.70557 -1.68e-4,1.56518 -5.17e-4,2.204 -9.71e-4,1.73145 -0.0018,2.36456 -0.0031,3.87521 0.061,0.0466 0.119787,0.10488 0.1757,0.17312 a 2.7830727,2.8535302 0 0 1 2.714563,2.85202 2.7830727,2.8535302 0 0 1 -2.783293,2.85357 2.7830727,2.8535302 0 0 1 -0.111104,-0.007 c -1.74e-4,0.13049 -3.67e-4,0.071 -5.17e-4,0 a 2.7830727,2.8535302 0 0 1 -5.16e-4,0 c -0.0033,2.54617 -0.0073,4.61313 -0.01137,6.43475 4.667492,-0.30322 8.304417,-4.32796 8.306469,-9.19221 -5.88e-4,-4.85726 -3.626203,-8.87992 -8.286315,-9.19375 z" /><path
         id="path21115"
         style="display:inline;fill:#000000;fill-opacity:1;stroke-width:0.1917"
         d="m 36.63187,124.25405 h 6.208317 v 6.32761 H 36.63187 Z M 30.329417,98.973287 v 18.403523 l 22.728418,-0.0855 c 0,0 2.120645,-0.0532 2.120645,0.11783 0.114049,-0.48471 0.0657,-6.1301 0.0657,-6.1301 H 36.637042 v -6.319 h 18.607133 v -5.986713 z m 24.88358,25.175263 c -0.764522,0.0928 -1.188317,0.0216 -1.65089,0.10175 H 42.839248 v 6.33604 H 55.09173 l 0.04162,-6.31835 z m -24.88358,0.10175 v 18.62573 h 24.914758 l -0.077,-6.19807 -12.327927,0.0447 -6.202206,0.0447 V 124.2503 Z m 24.83776,12.42766 h 0.02429 c -0.0092,-0.006 -0.01804,-0.0136 -0.0248,-0.0248 z m 0.05323,-2.12958 v 0.062 0.1881 c -6.01e-4,0.0293 0.0013,0.0583 0.0041,0.0873 v -0.33176 c -9.42e-4,-0.002 -0.003,-0.004 -0.0041,-0.006 z m -0.06976,0.78858 10e-4,0.0708 c 0.0033,-5e-5 0.0062,-4.5e-4 0.0093,-5.2e-4 -0.0034,-0.0234 -0.0062,-0.0469 -0.01034,-0.0703 z" /></g></g></svg>
