<?xml version="1.0" encoding="UTF-8" standalone="no"?>
<!-- Created with Inkscape (http://www.inkscape.org/) -->

<svg
   width="134.33778mm"
   height="134.33841mm"
   viewBox="0 0 134.33778 134.33841"
   version="1.1"
   id="svg5"
   xml:space="preserve"
   xmlns="http://www.w3.org/2000/svg"
   xmlns:svg="http://www.w3.org/2000/svg"><defs
     id="defs2" /><path
     d="M 67.16889,-2.0263615e-6 C 30.095475,-2.0263615e-6 -1.9472123e-6,30.096175 -1.9472123e-6,67.16889 -1.9472123e-6,103.62141 29.101345,133.29002 65.31681,134.2778 c 0.60357,0.0606 1.23747,0.0606 1.85208,0.0606 0.61461,0 1.24852,0 1.85209,-0.0606 36.21616,-0.98531 65.3168,-30.65462 65.3168,-67.10891 C 134.33778,30.09547 104.24266,-2.0263615e-6 67.16889,-2.0263615e-6 Z M 65.19277,4.137023 V 31.609592 H 42.783265 c 1.12998,-3.482305 2.4088,-6.764867 3.82834,-9.693275 C 51.67715,11.468098 58.27939,5.160784 65.19454,4.137023 Z m 3.95076,0 c 6.91515,1.023867 13.51703,7.331075 18.58292,17.779294 1.41937,2.926962 2.69819,6.209595 3.82835,9.693275 H 69.14529 V 4.137023 Z M 53.83368,5.371745 c -4.15325,3.534833 -7.809445,8.640233 -10.803825,14.816667 -1.67157,3.447838 -3.11573,7.324372 -4.38362,11.42118 H 14.939925 C 23.917767,18.456273 37.732545,8.82932 53.83368,5.371745 Z m 26.67071,0 c 16.10113,3.457504 29.9159,13.084528 38.89375,26.237847 H 95.69182 C 94.42401,27.512784 92.97984,23.636109 91.30821,20.188412 88.31372,14.011978 84.65764,8.906578 80.50439,5.371745 Z M 12.411214,35.560351 h 25.065211 c -2.34403,8.886825 -3.67524,18.942403 -3.82834,29.633333 H 4.0147501 C 4.3496141,54.424437 7.3482181,44.316295 12.411214,35.560351 Z m 29.200471,0 H 65.19559 V 65.193684 H 37.598845 c 0.16261,-10.783005 1.59438,-20.8661 4.01284,-29.633333 z m 27.534665,0 h 23.5839 c 2.41709,8.767233 3.85163,18.850328 4.01285,29.633333 H 69.14635 Z m 27.71916,0 h 25.06522 c 5.06306,8.755944 8.06026,18.864086 8.39646,29.633333 H 100.69386 C 100.54227,54.502754 99.20972,44.447176 96.86551,35.560351 Z M 4.0143971,69.14444 H 33.647735 c 0.15158,10.69481 1.48276,20.75886 3.82834,29.63334 H 12.410861 C 7.3576721,90.02183 4.3438921,79.9084 4.0143971,69.14444 Z m 33.5840879,0 H 65.19524 V 98.77778 H 41.611335 c -2.41984,-8.75454 -3.85304,-18.8461 -4.01285,-29.63334 z m 31.547515,0 H 96.74275 C 96.5829,79.93168 95.14837,90.02324 92.7299,98.77778 H 69.146 Z m 31.54751,0 h 29.63333 c -0.32935,10.76396 -3.34313,20.87739 -8.39646,29.63334 H 96.86516 c 2.34541,-8.87448 3.67665,-18.93853 3.82835,-29.63334 z m -85.813204,33.58409 h 23.768399 c 1.26782,4.0887 2.71198,7.9114 4.38362,11.3591 3.01791,6.22476 6.733125,11.3866 10.928005,14.94084 C 37.780875,125.58613 23.878961,115.951 14.883128,102.72853 Z m 27.905429,0 H 65.19524 v 27.47257 c -6.91233,-1.03491 -13.51844,-7.39599 -18.582925,-17.84138 -1.41937,-2.92696 -2.69819,-6.15421 -3.82835,-9.63119 z m 26.362025,0 h 22.40951 c -1.12999,3.47681 -2.40881,6.70419 -3.82835,9.63119 C 82.6648,122.80511 76.05974,129.1664 69.146,130.2011 v -27.47257 z m 26.54653,0 h 23.7684 c -8.99724,13.22106 -22.8988,22.85612 -39.07719,26.29994 4.19347,-3.55389 7.90857,-8.71467 10.928,-14.94084 1.67156,-3.44784 3.11573,-7.2704 4.38361,-11.3591 z"
     id="path3975"
     style="fill:#94f28c;fill-opacity:1;stroke-width:0.352778" /></svg>
