<?xml version="1.0" encoding="UTF-8" standalone="no"?>
<!DOCTYPE svg PUBLIC "-//W3C//DTD SVG 1.1//EN" "http://www.w3.org/Graphics/SVG/1.1/DTD/svg11.dtd">
<svg width="100%" height="100%" viewBox="0 0 657 158" version="1.1" xmlns="http://www.w3.org/2000/svg" xmlns:xlink="http://www.w3.org/1999/xlink" xml:space="preserve" xmlns:serif="http://www.serif.com/" style="fill-rule:evenodd;clip-rule:evenodd;stroke-linejoin:round;stroke-miterlimit:2;">
    <g transform="matrix(1,0,0,1,-3168,-5041)">
        <g transform="matrix(15.3846,0,0,4.75905,6331.78,4120.04)">
            <g id="h2o_logotype_horizontal_black" transform="matrix(0.065,0,0,0.210126,-238.777,-54.1969)">
                <g id="h2o_symbol_white" transform="matrix(0.328028,0,0,0.328028,276.64,952.278)">
                    <g transform="matrix(3.7037,0,0,3.7037,752.558,589.493)">
                        <rect x="84.6" y="62.165" width="27" height="27" style="fill-rule:nonzero;"/>
                    </g>
                    <g transform="matrix(3.33333,0,0,3.33333,762.782,651.443)">
                        <rect x="89.1" y="12.665" width="22.5" height="22.5" style="fill-rule:nonzero;"/>
                    </g>
                    <g transform="matrix(4.16667,0,0,4.16667,479.187,565.889)">
                        <rect x="111.6" y="39.665" width="18" height="18" style="fill-rule:nonzero;"/>
                    </g>
                    <g transform="matrix(1,0,0,1,161.633,-80.2372)">
                        <path d="M954.063,1051.19L853.109,1051.19L853.109,950.047L751.96,950.047L751.96,848.898L653.629,848.898L608.914,894.891C529.911,976.156 529.911,1107.92 608.914,1189.18C687.918,1270.43 816.011,1270.44 895.009,1189.18C932.241,1150.88 951.927,1101.36 954.063,1051.19ZM954.258,1042.03L954.258,1042.1L954.258,1041.97L954.258,1042.03Z" style="fill-rule:nonzero;"/>
                    </g>
                </g>
                <g id="type" transform="matrix(0.593447,0,0,0.593447,167.276,353.682)">
                    <g transform="matrix(1,0,0,1,-26.6514,0)">
                        <path d="M1048.51,1621.65C1048.51,1623.16 1049.11,1624.6 1050.18,1625.66C1051.24,1626.73 1052.68,1627.33 1054.19,1627.33C1054.19,1627.33 1054.19,1627.33 1054.19,1627.33C1057.33,1627.33 1059.87,1624.79 1059.87,1621.65C1059.87,1596.28 1059.87,1493.39 1059.87,1468.02C1059.87,1464.89 1057.33,1462.35 1054.19,1462.35C1054.19,1462.35 1054.19,1462.35 1054.19,1462.35C1051.06,1462.35 1048.51,1464.89 1048.51,1468.02L1048.51,1545.87L954.715,1545.87L954.715,1468.02C954.715,1464.89 952.174,1462.35 949.04,1462.35L949.039,1462.35C945.905,1462.35 943.364,1464.89 943.364,1468.02C943.364,1493.39 943.364,1596.28 943.364,1621.65C943.364,1624.79 945.905,1627.33 949.039,1627.33C949.039,1627.33 949.04,1627.33 949.04,1627.33C950.545,1627.33 951.989,1626.73 953.053,1625.66C954.117,1624.6 954.715,1623.16 954.715,1621.65C954.715,1604.81 954.715,1556.32 954.715,1556.32L1048.51,1556.32L1048.51,1621.65Z" style="fill-rule:nonzero;"/>
                    </g>
                    <g transform="matrix(1,0,0,1,-28.38,0)">
                        <path d="M1250.17,1627.33L1350.53,1627.33C1353.66,1627.33 1356.2,1624.79 1356.2,1621.65L1356.2,1621.65C1356.2,1620.14 1355.6,1618.7 1354.54,1617.64C1353.47,1616.57 1352.03,1615.97 1350.53,1615.97C1331.09,1615.97 1268.38,1615.97 1268.38,1615.97L1325.28,1558.15C1348.48,1534.25 1353.92,1518.09 1353.92,1503.75C1353.92,1478.48 1334.61,1459.61 1306.38,1459.61C1282.53,1459.61 1266.05,1473.58 1256.08,1490.53C1255.32,1491.83 1255.12,1493.38 1255.51,1494.84C1255.9,1496.3 1256.86,1497.54 1258.17,1498.28C1258.16,1498.3 1258.16,1498.3 1258.16,1498.3C1260.74,1499.77 1264.03,1498.93 1265.58,1496.39C1274.32,1482.09 1286.63,1470.74 1306.38,1470.74C1330.51,1470.74 1342.8,1486.67 1342.8,1503.75C1342.8,1517.4 1338.02,1528.79 1316.85,1550.87L1250.17,1619.15L1250.17,1627.33Z" style="fill-rule:nonzero;"/>
                    </g>
                    <g transform="matrix(1,0,0,1,-21.915,0)">
                        <path d="M1621.37,1630.06C1669.17,1630.06 1704.65,1593.66 1704.65,1544.72C1704.65,1496.01 1669.17,1459.61 1621.37,1459.61C1573.56,1459.61 1538.31,1496.01 1538.31,1544.72C1538.31,1592.98 1573.56,1630.06 1621.37,1630.06ZM1621.37,1618.7C1579.25,1618.7 1549.43,1587.29 1549.43,1544.72C1549.43,1502.84 1579.25,1470.74 1621.37,1470.74C1663.48,1470.74 1693.53,1502.84 1693.53,1544.72C1693.53,1587.29 1663.48,1618.7 1621.37,1618.7Z" style="fill-rule:nonzero;"/>
                    </g>
                </g>
            </g>
        </g>
    </g>
</svg>
