<svg width="258" height="67" viewBox="0 0 258 67" fill="none" xmlns="http://www.w3.org/2000/svg">
<g clip-path="url(#clip0_3:561)">
<path d="M37.3721 2.33133V50.9842C38.0678 50.669 38.7473 50.3249 39.4105 49.952V3.36435C38.7478 2.99244 38.0683 2.6481 37.3721 2.33133Z" fill="#FFFE58"/>
<path d="M27.1792 0V53.3163C27.8657 53.2991 28.5451 53.2557 29.2176 53.186V0.1303C28.5431 0.060599 27.8636 0.0171651 27.1792 0Z" fill="#FFFE58"/>
<path d="M50.9616 36.9315C52.3073 33.6757 53 30.1844 53 26.6582C53 23.1321 52.3073 19.6407 50.9616 16.3849V36.9315Z" fill="#FFFE58"/>
<path d="M23.7863 0.1303V53.186C24.4582 53.2557 25.1377 53.2991 25.8247 53.3163V0C25.1377 0.0171651 24.4582 0.060599 23.7863 0.1303Z" fill="#FFFE58"/>
<path d="M13.5895 3.36435V49.952C14.2522 50.3239 14.9317 50.6679 15.6279 50.9842V2.33133C14.9322 2.64706 14.2527 2.9914 13.5895 3.36435Z" fill="#FFFE58"/>
<path d="M16.9872 1.76179V51.5546C17.654 51.8147 18.3335 52.0461 19.0256 52.249V1.06583C18.334 1.27129 17.6545 1.50328 16.9872 1.76179Z" fill="#FFFE58"/>
<path d="M20.3849 0.70541V52.6111C21.0569 52.7702 21.7363 52.9037 22.4233 53.0113V0.302811C21.7348 0.411003 21.0553 0.545203 20.3849 0.70541Z" fill="#FFFE58"/>
<path d="M0.000111962 26.6582C-0.00424393 30.1848 0.688674 33.677 2.03851 36.9315V16.3849C0.688733 19.6394 -0.00418192 23.1316 0.000111962 26.6582Z" fill="#FFFE58"/>
<path d="M3.39453 13.5862V39.7302C4.00064 40.814 4.68179 41.8535 5.43293 42.841V10.4754C4.68214 11.4632 4.00101 12.5027 3.39453 13.5862Z" fill="#FFFE58"/>
<path d="M6.79517 8.82839V44.485C7.43755 45.2036 8.11801 45.8867 8.83357 46.5315V6.78262C8.11783 7.42693 7.43735 8.10986 6.79517 8.82839Z" fill="#FFFE58"/>
<path d="M10.192 5.63798V47.6792C10.8479 48.1941 11.5274 48.6786 12.2304 49.1327V4.18362C11.5279 4.63616 10.8484 5.12094 10.192 5.63798Z" fill="#FFFE58"/>
<path d="M44.1664 6.78262V46.5346C44.882 45.8899 45.5624 45.2067 46.2048 44.4881V8.83151C45.5627 8.11191 44.8822 7.42794 44.1664 6.78262Z" fill="#FFFE58"/>
<path d="M40.7664 4.18362V49.1327C41.4689 48.6802 42.1484 48.1957 42.8049 47.6792V5.63798C42.151 5.12198 41.4715 4.6372 40.7664 4.18362Z" fill="#FFFE58"/>
<path d="M47.5641 10.4754V42.841C48.3163 41.8536 48.9985 40.8141 49.6056 39.7302V13.5862C48.9981 12.5026 48.3159 11.4631 47.5641 10.4754Z" fill="#FFFE58"/>
<path d="M33.9744 1.06743V52.2506C34.666 52.0462 35.3455 51.8147 36.0128 51.5562V1.76184C35.346 1.50384 34.6665 1.27237 33.9744 1.06743Z" fill="#FFFE58"/>
<path d="M30.5767 0.302811V53.0113C31.2652 52.9042 31.9447 52.7708 32.6151 52.6111V0.70541C31.9452 0.546243 31.2658 0.412043 30.5767 0.302811Z" fill="#FFFE58"/>
<path d="M15.6281 9.16929V57.8222C16.0747 58.024 16.5277 58.2141 16.9873 58.3925V8.59894C16.5282 8.77683 16.0752 8.96695 15.6281 9.16929Z" fill="#EA4E8B"/>
<path d="M22.4232 7.14293V59.8483C22.8724 59.9185 23.3255 59.9771 23.7824 60.0239V6.96815C23.3255 7.01445 22.8724 7.07271 22.4232 7.14293Z" fill="#EA4E8B"/>
<path d="M19.0255 7.90535V59.0885C19.4737 59.2206 19.9268 59.341 20.3847 59.4497V7.54332C19.9268 7.65203 19.4737 7.77271 19.0255 7.90535Z" fill="#EA4E8B"/>
<path d="M2.03836 23.2227V43.7693C2.43577 44.7288 2.88857 45.6641 3.39445 46.5704V20.4241C2.8885 21.3295 2.4357 22.264 2.03836 23.2227Z" fill="#EA4E8B"/>
<path d="M26.5 6.82936C26.2728 6.82936 26.0464 6.82936 25.8207 6.83794V60.1542C26.0466 60.16 26.273 60.1628 26.5 60.1628C26.7269 60.1628 26.9533 60.16 27.1792 60.1542V6.83794C26.9535 6.8317 26.7271 6.82936 26.5 6.82936Z" fill="#EA4E8B"/>
<path d="M12.2336 11.0216V55.9707C12.6781 56.2563 13.1312 56.5291 13.5927 56.7892V10.2023C13.1291 10.4624 12.676 10.7355 12.2336 11.0216Z" fill="#EA4E8B"/>
<path d="M8.83356 13.6198V53.3718C9.27344 53.7681 9.72624 54.1497 10.192 54.5164V12.4744C9.72676 12.8416 9.27396 13.2234 8.83356 13.6198Z" fill="#EA4E8B"/>
<path d="M5.43604 17.3117V49.6788C5.86713 50.2458 6.3202 50.7948 6.79523 51.3259V15.6654C6.32071 16.196 5.86765 16.7447 5.43604 17.3117Z" fill="#EA4E8B"/>
<path d="M46.2048 15.6654V51.3298C46.6793 50.7992 47.1324 50.2502 47.564 49.6827V17.3117C47.1329 16.7447 46.6798 16.196 46.2048 15.6654Z" fill="#EA4E8B"/>
<path d="M42.808 12.4744V54.5164C43.2732 54.1523 43.726 53.7707 44.1664 53.3718V13.6198C43.7265 13.2234 43.2737 12.8416 42.808 12.4744Z" fill="#EA4E8B"/>
<path d="M49.6055 20.4241V46.5704C50.1123 45.6649 50.5662 44.7304 50.9647 43.7717V23.2227C50.5663 22.2639 50.1125 21.3294 49.6055 20.4241Z" fill="#EA4E8B"/>
<path d="M29.2175 6.96745V60.0232C29.6745 59.9764 30.1276 59.9178 30.5767 59.8476V7.143C30.1281 7.07278 29.675 7.01427 29.2175 6.96745Z" fill="#EA4E8B"/>
<path d="M32.6152 7.54332V59.4482C33.0732 59.3395 33.5263 59.2191 33.9744 59.087V7.90379C33.5263 7.77219 33.0732 7.65203 32.6152 7.54332Z" fill="#EA4E8B"/>
<path d="M39.4104 10.2023V56.7915C39.872 56.5314 40.3251 56.2586 40.7696 55.973V11.0216C40.3256 10.7355 39.8726 10.4624 39.4104 10.2023Z" fill="#EA4E8B"/>
<path d="M36.0128 8.59894V58.3925C36.4718 58.2146 36.9248 58.0245 37.372 57.8222V9.16929C36.9254 8.96747 36.4723 8.77735 36.0128 8.59894Z" fill="#EA4E8B"/>
<path d="M36.0128 15.4393V65.2328C36.4718 65.0549 36.9248 64.8648 37.372 64.6625V16.0073C36.9254 15.8055 36.4723 15.6161 36.0128 15.4393Z" fill="#E85EF6"/>
<path d="M15.6281 16.0073V64.6601C16.0747 64.8625 16.5277 65.0526 16.9873 65.2305V15.4393C16.5282 15.6156 16.0752 15.8049 15.6281 16.0073Z" fill="#E85EF6"/>
<path d="M22.4232 13.9809V66.6863C22.8724 66.7565 23.3255 66.8151 23.7824 66.8619V13.8062C23.3255 13.8545 22.8724 13.9128 22.4232 13.9809Z" fill="#E85EF6"/>
<path d="M19.0255 14.7424V65.9256C19.4737 66.0582 19.9268 66.1789 20.3847 66.2876V14.3804C19.9268 14.4896 19.4737 14.6103 19.0255 14.7424Z" fill="#E85EF6"/>
<path d="M2.03836 30.06V50.6066C2.4357 51.5654 2.8885 52.4998 3.39445 53.4053V27.2613C2.88865 28.1669 2.43585 29.1013 2.03836 30.06Z" fill="#E85EF6"/>
<path d="M26.5 13.6665C26.273 13.6665 26.0466 13.6693 25.8207 13.6751V66.9913C26.0464 66.9976 26.2728 66.9999 26.5 66.9999C26.7271 66.9999 26.9535 66.9999 27.1792 66.9913V13.6751C26.9538 13.6699 26.7274 13.667 26.5 13.6665Z" fill="#E85EF6"/>
<path d="M12.2336 17.858V62.8071C12.6781 63.0937 13.1312 63.3668 13.5927 63.6264V17.0403C13.1291 17.2994 12.676 17.5719 12.2336 17.858Z" fill="#E85EF6"/>
<path d="M8.83356 20.4577V60.2097C9.27344 60.606 9.72624 60.9876 10.192 61.3543V19.3131C9.72676 19.6793 9.27396 20.0608 8.83356 20.4577Z" fill="#E85EF6"/>
<path d="M5.43604 24.1506V56.5161C5.86713 57.0841 6.3202 57.6332 6.79523 58.1632V22.5067C6.32071 23.0351 5.86765 23.5831 5.43604 24.1506Z" fill="#E85EF6"/>
<path d="M46.2048 22.5034V58.16C46.6793 57.6299 47.1324 57.0809 47.564 56.5129V24.1505C47.1329 23.5835 46.6798 23.0345 46.2048 22.5034Z" fill="#E85EF6"/>
<path d="M42.808 19.3131V61.3543C43.2732 60.9876 43.726 60.606 44.1664 60.2097V20.4577C43.7265 20.0613 43.2737 19.6798 42.808 19.3131Z" fill="#E85EF6"/>
<path d="M49.6055 27.2613V53.4053C50.1125 52.4999 50.5663 51.5654 50.9647 50.6066V30.06C50.5662 29.1013 50.1123 28.1668 49.6055 27.2613Z" fill="#E85EF6"/>
<path d="M29.2175 13.8054V66.8611C29.6745 66.8143 30.1276 66.7558 30.5767 66.6856V13.981C30.1281 13.9128 29.675 13.8543 29.2175 13.8054Z" fill="#E85EF6"/>
<path d="M32.6152 14.3804V66.286C33.0732 66.1773 33.5263 66.0567 33.9744 65.924V14.7409C33.5263 14.6103 33.0732 14.4902 32.6152 14.3804Z" fill="#E85EF6"/>
<path d="M39.4104 17.0403V63.6271C39.872 63.3671 40.3251 63.094 40.7696 62.8079V17.858C40.3256 17.573 39.8726 17.3004 39.4104 17.0403Z" fill="#E85EF6"/>
</g>
<path d="M79.7368 20.0175H68V46.9577H74.6092V24.0734H75.6788V44.4233H78.2301V46.9577H89.9669V20.0175H83.3577V42.9266H82.288V22.5767H79.7368V20.0175Z" fill="black"/>
<path d="M113.954 20.0175H91.962V46.9577H113.954V40.3673H98.5962V36.7952H108.826V34.2359H111.403V30.2048H98.5962V26.6078H113.954V20.0175Z" fill="black"/>
<path d="M115.974 20.0423H122.583V37.8578H123.653V22.6016H130.262V37.8578H131.332V20.0423H137.941V46.9825H131.332V44.4481H128.755V41.8889H125.159V44.4481H122.583V46.9825H115.974V20.0423Z" fill="black"/>
<path fill-rule="evenodd" clip-rule="evenodd" d="M204.848 25.1111H193.112V41.864H204.848V25.1111ZM194.618 40.3673V26.6078H203.342V40.3673H194.618Z" fill="black"/>
<path fill-rule="evenodd" clip-rule="evenodd" d="M204.848 20.0175H187.984V46.9577H204.848V44.4233H207.425V41.864H209.976V25.1111H207.425V22.5767H204.848V20.0175ZM189.491 45.461V21.5142H203.342V24.0734H205.918V26.6078H208.469V40.3673H205.918V42.9266H203.342V45.461H189.491Z" fill="black"/>
<path fill-rule="evenodd" clip-rule="evenodd" d="M233.988 20.0175H211.996V46.9577H233.988V40.3673H218.63V36.7952H228.86V34.2359H231.437V30.2048H218.63V26.6078H233.988V20.0175ZM213.503 45.461V21.5142H232.481V25.1111H217.124V31.7015H229.93V32.7392H227.354V35.2985H217.124V41.864H232.481V45.461H213.503Z" fill="black"/>
<path fill-rule="evenodd" clip-rule="evenodd" d="M156.849 25.136H145.088V41.8889H156.849V25.136ZM146.594 40.3922V26.6327H155.343V40.3922H146.594Z" fill="black"/>
<path fill-rule="evenodd" clip-rule="evenodd" d="M159.401 20.0423H142.536V22.6016H139.96V44.4481H142.536V46.9825H159.401V44.4481H161.952V22.6016H159.401V20.0423ZM144.043 24.0983V21.539H157.894V24.0983H160.445V42.9514H157.894V45.4859H144.043V42.9514H141.467V24.0983H144.043Z" fill="black"/>
<path fill-rule="evenodd" clip-rule="evenodd" d="M180.836 25.136H169.1V34.2608H180.836V25.136ZM170.606 32.7641V26.6327H179.33V32.7641H170.606Z" fill="black"/>
<path fill-rule="evenodd" clip-rule="evenodd" d="M183.413 20.0423H163.972V46.9825H170.606V39.3544H174.202V41.8889H176.778V44.4233H179.33V46.9825H185.964V40.3922H183.413V37.8578H180.836V36.7952H183.413V34.2608H185.964V22.6016H183.413V20.0423ZM165.479 45.4859V21.539H181.906V24.0983H184.457V32.7641H181.906V35.2985H179.33V39.3544H181.906V41.8889H184.457V45.4859H180.836V42.9266H178.285V40.3922H175.709V37.8578H169.1V45.4859H165.479Z" fill="black"/>
<path fill-rule="evenodd" clip-rule="evenodd" d="M252.872 25.136H241.136V34.2608H252.872V25.136ZM242.642 32.7641V26.6327H251.366V32.7641H242.642Z" fill="black"/>
<path fill-rule="evenodd" clip-rule="evenodd" d="M255.449 20.0423H236.008V46.9825H242.642V39.3544H246.238V41.8889H248.815V44.4233H251.366V46.9825H258V40.3922H255.449V37.8578H252.872V36.7952H255.449V34.2608H258V22.6016H255.449V20.0423ZM237.515 45.4859V21.539H253.942V24.0983H256.493V32.7641H253.942V35.2985H251.366V39.3544H253.942V41.8889H256.493V45.4859H252.872V42.9266H250.321V40.3922H247.745V37.8578H241.136V45.4859H237.515Z" fill="black"/>
<defs>
<clipPath id="clip0_3:561">
<rect width="53" height="67" fill="white"/>
</clipPath>
</defs>
</svg>
