<?xml version="1.0" encoding="utf-8"?>
<!-- Generator: Adobe Illustrator 26.0.3, SVG Export Plug-In . SVG Version: 6.00 Build 0)  -->
<svg version="1.0" id="katman_1" xmlns="http://www.w3.org/2000/svg" xmlns:xlink="http://www.w3.org/1999/xlink" x="0px" y="0px"
	 viewBox="0 0 800 600" style="enable-background:new 0 0 800 600;" xml:space="preserve">
<style type="text/css">
	.st0{fill:#FF001D;}
	.st1{fill:#1D1D1B;}
</style>
<path class="st0" d="M211.4,291.9h32c1.4,0,2.7-0.4,3.9-1.2c1.1-0.8,2-1.8,2.6-3.1c0.5-1.3,0.7-2.7,0.4-4c-0.3-1.3-0.9-2.6-1.9-3.6
	l-64.1-64c-1-1-2.2-1.6-3.6-1.9c-1.3-0.3-2.7-0.1-4,0.4s-2.4,1.4-3.1,2.5c-0.8,1.1-1.2,2.5-1.2,3.8v32c0,1.8,0.7,3.6,2,4.9
	l32.1,32.1c0.6,0.6,1.4,1.2,2.2,1.5C209.6,291.7,210.5,291.9,211.4,291.9z"/>
<path class="st0" d="M156.9,252.9v-32c0-1.4-0.4-2.7-1.2-3.8c-0.8-1.1-1.8-2-3.1-2.5s-2.7-0.7-4-0.4c-1.3,0.3-2.6,0.9-3.6,1.9
	l-64.1,64c-1,1-1.7,2.2-1.9,3.5c-0.3,1.3-0.1,2.7,0.4,4c0.5,1.3,1.4,2.4,2.6,3.1c1.1,0.8,2.5,1.2,3.9,1.2h32c0.9,0,1.8-0.2,2.7-0.5
	c0.8-0.4,1.6-0.9,2.2-1.5l32.1-32.1C156.1,256.5,156.9,254.7,156.9,252.9z"/>
<path class="st0" d="M117.8,307.3h-32c-1.4,0-2.7,0.4-3.9,1.2c-1.1,0.8-2,1.8-2.6,3.1c-0.5,1.3-0.7,2.7-0.4,4
	c0.3,1.3,0.9,2.6,1.9,3.5l64.1,64c1,1,2.2,1.6,3.6,1.9s2.7,0.1,4-0.4c1.3-0.5,2.4-1.4,3.1-2.5c0.8-1.1,1.2-2.5,1.2-3.8v-32
	c0-1.8-0.7-3.6-2-4.9l-32.1-31.9c-0.6-0.7-1.4-1.2-2.2-1.6C119.7,307.5,118.8,307.3,117.8,307.3z"/>
<path class="st0" d="M172.4,346.3v32c0,1.4,0.4,2.7,1.2,3.8c0.8,1.1,1.8,2,3.1,2.5c1.3,0.5,2.7,0.7,4,0.4c1.3-0.3,2.6-0.9,3.6-1.9
	l64.1-64c1-1,1.6-2.2,1.9-3.6c0.3-1.3,0.1-2.7-0.4-4c-0.5-1.3-1.4-2.3-2.6-3.1c-1.1-0.8-2.5-1.2-3.9-1.2h-32c-0.9,0-1.8,0.2-2.7,0.5
	c-0.8,0.3-1.6,0.9-2.2,1.5l-32.1,32.1C173.1,342.7,172.4,344.5,172.4,346.3z"/>
<path class="st1" d="M333.6,240.9c8.3-0.3,16.7,0.8,24.7,3.2c5.8,1.8,10.7,5.7,13.8,10.9c3,5.1,4.4,12.4,4.4,21.7
	c0.1,5.3-0.7,10.6-2.3,15.7c-1.4,4.1-3.9,7.6-7.3,10.2c-4,2.8-8.7,4.5-13.6,4.9v0.9c2.3,0.5,4.4,1.5,6.4,2.7c2.6,1.7,4.9,4,6.6,6.6
	c1.7,2.6,2.9,5.6,3.5,8.7l11.3,38.2h-23.4l-10.1-37.7c-0.8-3.4-2.7-6.6-5.3-8.9c-2.7-1.8-5.9-2.7-9.2-2.6c-7.7,0-14.2,0-19.7,0
	s-10-0.1-13.6-0.3c-3.6-0.1-6.7-0.2-9.4-0.2l0.5-16.8h42.2c4.3,0.2,8.5-0.4,12.6-1.7c1.5-0.5,2.8-1.3,3.9-2.3c1.1-1.1,2-2.3,2.6-3.8
	c1.5-4,2.1-8.2,1.9-12.4c0.2-4.1-0.4-8.3-1.9-12.2c-0.6-1.4-1.5-2.6-2.7-3.7c-1.1-1-2.4-1.8-3.9-2.4c-4.1-1.3-8.3-1.9-12.6-1.8
	c-10.4,0-19.3,0.1-26.8,0.2c-7.4,0-12.5,0.3-15.1,0.4l-2.6-16.1c4.7-0.5,9.1-0.8,13.4-1.1c4.2-0.2,8.8-0.4,13.7-0.4
	C320.7,240.9,326.6,240.9,333.6,240.9z M310.4,242.5v122.1h-21.8V242.4L310.4,242.5z"/>
<path class="st1" d="M494.6,242.4v74.4c0,12.2-1.5,21.9-4.5,29.2c-2.7,7-7.9,12.7-14.6,15.9c-6.7,3.3-15.7,4.9-26.9,5
	c-11.8,0-21.3-1.7-28.4-5c-7-3.2-12.5-8.9-15.3-15.9c-3.1-7.3-4.7-17-4.7-29.2v-74.4h22v74.4c-0.2,6.5,0.6,13,2.3,19.2
	c1.2,4.2,4.1,7.8,8,9.9c4.7,2.1,9.8,3.1,15,2.9c5.1,0.2,10.2-0.7,14.8-2.9c3.8-2.2,6.7-5.7,7.9-9.9c1.9-6.2,2.7-12.7,2.5-19.2v-74.4
	H494.6z"/>
<path class="st1" d="M564.4,241.1c8.4-0.2,16.7,0.7,24.8,2.7c5.5,1.4,10.3,4.8,13.3,9.6c2.7,4.7,4.1,11.2,4.1,19.5
	c0,8.7-1.6,15.4-4.9,20s-8.7,7.3-16.2,8v0.7c9.4,0.8,15.9,4,19.5,9.5c3.6,5.5,5.5,13.2,5.5,23c0,8.4-1.4,14.9-4.2,19.5
	c-3,4.7-7.6,8.2-13,9.6c-7.6,2-15.4,3-23.2,2.7c-7.6,0-14.1,0-19.6,0c-5.5,0-10.5-0.2-15.2-0.4c-4.6-0.2-9.4-0.5-14.3-0.9l2.6-15.9
	c2.7,0.1,7.9,0.2,15.6,0.4c7.7,0.1,16.7,0.2,26.9,0.2c4.5,0.1,9-0.4,13.4-1.5c1.5-0.4,2.9-1.1,4-2.1c1.2-1,2.1-2.2,2.8-3.6
	c1.5-3.8,2.1-7.9,1.9-12c0.2-4.4-0.5-8.8-2-13c-0.7-1.5-1.6-2.8-2.8-3.9c-1.2-1.1-2.6-1.9-4.2-2.5c-4.5-1.4-9.1-2.1-13.8-2h-42
	v-14.9h41.8c4.1,0,8.1-0.5,12-1.7c1.4-0.4,2.6-1.1,3.7-2c1.1-0.9,2-2.1,2.6-3.3c1.4-3.5,2-7.4,1.8-11.2c0.2-3.8-0.5-7.6-2-11.1
	c-0.7-1.3-1.7-2.5-2.8-3.4c-1.2-0.9-2.5-1.6-4-1.9c-4.3-1.1-8.8-1.6-13.3-1.4h-16.7c-4.8,0-9.1,0-12.9,0s-7,0.2-10.1,0.4l-2.6-15.9
	c4.5-0.5,8.8-0.8,12.8-1c4.1-0.2,8.6-0.3,13.5-0.4C552.2,241,557.9,241.1,564.4,241.1z M542.6,242.5v122.1H521V242.4L542.6,242.5z"
	/>
<path class="st1" d="M720.9,242.4l-41.3,82.1h-20.4l-41.6-82.1h23.1l22.8,47.8c1.1,2.4,2,4.8,2.8,7.3c0.7,2.6,1.5,5.1,2.2,7.5h1.6
	c0.7-2.5,1.5-5,2.3-7.5c0.9-2.6,1.7-4.9,2.6-7.2l22.9-48H720.9z M680.3,310.5v54h-22v-53.9L680.3,310.5z"/>
</svg>
