<?xml version="1.0" encoding="UTF-8" standalone="no"?>
<!-- Created with Inkscape (http://www.inkscape.org/) -->

<svg
   width="167.19208mm"
   height="182.35707mm"
   viewBox="0 0 167.19208 182.35707"
   version="1.1"
   id="svg5"
   xml:space="preserve"
   inkscape:export-filename="datafi.svg"
   inkscape:export-xdpi="56.020809"
   inkscape:export-ydpi="56.020809"
   xmlns:inkscape="http://www.inkscape.org/namespaces/inkscape"
   xmlns:sodipodi="http://sodipodi.sourceforge.net/DTD/sodipodi-0.dtd"
   xmlns="http://www.w3.org/2000/svg"
   xmlns:svg="http://www.w3.org/2000/svg"><sodipodi:namedview
     id="namedview7"
     pagecolor="#ffffff"
     bordercolor="#000000"
     borderopacity="0.25"
     inkscape:showpageshadow="2"
     inkscape:pageopacity="0.0"
     inkscape:pagecheckerboard="0"
     inkscape:deskcolor="#d1d1d1"
     inkscape:document-units="mm"
     showgrid="false" /><defs
     id="defs2" /><g
     id="g7406"
     transform="matrix(0.35277778,0,0,0.35277778,-39.876681,-7.6006248)"
     style="fill:#94f28c;fill-opacity:1"><path
       d="m 113.04,153.9 c 2.4805,203.33 77.637,328.71 229.75,383.3 4.7109,1.6836 9.8438,1.6836 14.555,0 152.03,-54.562 227.14,-179.94 229.62,-383.3 0.125,-10.012 -6.6875,-18.781 -16.406,-21.18 -27.238,-6.668 -58.199,-22.801 -55.992,-88.93 0.29297,-8.5391 -4.5,-16.449 -12.219,-20.148 -7.7188,-3.6602 -16.891,-2.4609 -23.367,3.1328 -18.301,15.773 -86.555,23.621 -128.66,24.148 -42.594,-0.50391 -110.83,-8.3281 -129.17,-24.148 -6.4805,-5.5977 -15.629,-6.7969 -23.348,-3.1367 -7.7188,3.6797 -12.516,11.57 -12.242,20.109 2.0625,66.191 -28.898,82.324 -56.117,88.973 -9.7188,2.3945 -16.531,11.168 -16.406,21.18 z M 226.9,77.021 c 44.906,15.125 107.84,16.785 123.43,16.973 15.188,-0.1875 77.973,-1.8516 122.86,-16.953 7.6992,54.477 38.934,80.305 70.359,92.316 -5.5742,172.79 -67.352,276.34 -193.47,324.59 -126.2,-48.273 -188.02,-151.82 -193.59,-324.59 31.398,-12.008 62.637,-37.836 70.418,-92.336 z"
       id="path7402"
       style="fill:#94f28c;fill-opacity:1" /><path
       d="m 427.07,370.1 c 12.074,0 23.77,-5.6797 31.277,-15.188 7.3398,-9.3164 9.9922,-21.18 7.2773,-32.559 -8.1523,-34.203 -30.441,-61.723 -59.77,-77.305 7.8359,-11.125 12.527,-24.609 12.527,-39.223 0,-37.715 -30.668,-68.402 -68.379,-68.402 -37.715,0.004 -68.379,30.691 -68.379,68.406 0,14.613 4.6914,28.098 12.531,39.223 -29.328,15.582 -51.621,43.109 -59.773,77.324 -2.7148,11.398 -0.043,23.262 7.3203,32.582 7.4883,9.4844 19.184,15.145 31.234,15.145 z M 324.7,205.83 c 0,-13.965 11.359,-25.324 25.305,-25.324 13.946,0 25.305,11.359 25.305,25.324 0,13.867 -11.246,25.133 -25.082,25.258 -0.0781,0 -0.14844,-0.0195 -0.22266,-0.0195 -0.0742,0 -0.14453,0.0195 -0.22266,0.0195 -13.836,-0.125 -25.082,-11.391 -25.082,-25.258 z m 24.957,68.344 c 0.11719,0 0.22656,0.0352 0.34766,0.0352 0.1211,0 0.23047,-0.0352 0.34766,-0.0352 33.234,0.15234 62.012,21.559 71.902,52.852 h -144.5 c 9.8711,-31.293 38.668,-52.699 71.902,-52.852 z"
       id="path7404"
       style="fill:#94f28c;fill-opacity:1" /></g></svg>
