<?xml version="1.0" encoding="UTF-8" standalone="no"?>
<!-- Created with Inkscape (http://www.inkscape.org/) -->

<svg
   width="131.34671mm"
   height="187.67786mm"
   viewBox="0 0 131.34671 187.67786"
   version="1.1"
   id="svg5"
   xml:space="preserve"
   inkscape:export-filename="datafi.svg"
   inkscape:export-xdpi="56.020809"
   inkscape:export-ydpi="56.020809"
   xmlns:inkscape="http://www.inkscape.org/namespaces/inkscape"
   xmlns:sodipodi="http://sodipodi.sourceforge.net/DTD/sodipodi-0.dtd"
   xmlns="http://www.w3.org/2000/svg"
   xmlns:svg="http://www.w3.org/2000/svg"><sodipodi:namedview
     id="namedview7"
     pagecolor="#ffffff"
     bordercolor="#000000"
     borderopacity="0.25"
     inkscape:showpageshadow="2"
     inkscape:pageopacity="0.0"
     inkscape:pagecheckerboard="0"
     inkscape:deskcolor="#d1d1d1"
     inkscape:document-units="mm"
     showgrid="false" /><defs
     id="defs2" /><path
     d="m 129.47718,139.48402 c -1.1865,-1.18375 -2.79467,-1.85071 -4.4704,-1.85622 H 112.59747 V 65.685831 c 0,-5.18266 -4.20158,-9.38459 -9.38318,-9.38459 l -31.278687,0.001 c -1.06797,0.01 -2.1263,0.20395 -3.12815,0.57189 v -6.82802 h 12.41742 c 3.50986,-0.003 6.35423,-2.85115 6.35141,-6.36093 -0.001,-1.68258 -0.66971,-3.29629 -1.85896,-4.48698 L 48.280543,1.8531113 c -2.48874,-2.47082003 -6.50452,-2.47082003 -8.99301,0 L 1.871923,39.201691 c -2.48598996,2.47082 -2.49699996,6.48935 -0.0262,8.97502 1.19063,1.19751 2.81122,1.87138 4.49933,1.87276 h 12.41743 v 71.941969 c 0,5.18266 4.20158,9.38459 9.38318,9.38459 h 31.27869 c 1.06796,-0.01 2.1263,-0.20394 3.12815,-0.57188 v 6.82801 h -12.41743 c -3.50435,0.001 -6.34576,2.8429 -6.34576,6.34718 0,1.68949 0.67387,3.30867 1.87275,4.49933 l 37.41209,37.34505 c 2.48461,2.4722 6.49887,2.4722 8.98348,0 l 37.433247,-37.35211 c 2.47908,-2.48599 2.47358,-6.50981 -0.011,-8.98878 z M 59.422573,125.11643 h -31.27869 c -1.72805,0 -3.12815,-1.4001 -3.12815,-3.12815 V 50.046311 c 0,-3.45475 -2.80018,-6.25616 -6.25616,-6.25616 L 6.304753,43.627541 43.857943,6.2824813 81.280613,43.793351 c -0.0193,0.003 -0.0372,0.003 -0.0565,0 h -12.41743 c -3.45475,0 -6.25616,2.80155 -6.25616,6.25616 v 71.984299 c -0.0234,1.70879 -1.41661,3.08268 -3.12815,3.08268 z m 28.06665,56.27864 -37.36623,-37.51086 h 12.42731 c 3.45475,0 6.25616,-2.80155 6.25616,-6.25616 V 65.643751 c 0.0234,-1.71017 1.41799,-3.08406 3.12815,-3.08406 H 103.2133 c 1.72804,0 3.12815,1.40011 3.12815,3.12815 v 71.941979 c 0,3.45475 2.80017,6.25616 6.25616,6.25616 h 12.41743 l 0.0744,0.16261 z"
     id="path8535"
     style="fill:#94f28c;fill-opacity:1;stroke-width:0.352778" /></svg>
