<svg width="90" height="91" viewBox="0 0 90 91" fill="none" xmlns="http://www.w3.org/2000/svg">
<g clip-path="url(#clip0_59_2314)">
<path d="M45 90.5765C69.8023 90.5765 89.9085 70.395 89.9085 45.5C89.9085 20.6049 69.8023 0.423462 45 0.423462C20.1977 0.423462 0.0915222 20.6049 0.0915222 45.5C0.0915222 70.395 20.1977 90.5765 45 90.5765Z" fill="#172852"/>
<path d="M36.2653 20.5682C41.5241 18.5939 47.443 18.5893 52.8006 20.2121C59.7749 22.3848 65.6624 27.6677 68.7386 34.2985C69.5874 36.1872 70.4002 38.1571 70.4811 40.2576C66.5606 37.9767 62.2628 36.4982 57.9561 35.1504C51.0671 32.6577 43.8548 30.9268 37.3341 27.501C35.8162 26.5904 33.8807 25.6573 33.4675 23.7596C33.3013 22.1188 35.0303 21.2038 36.2653 20.5682Z" fill="#FFD83D"/>
<path d="M20.3901 36.5253C21.9125 32.3783 24.4095 28.5287 27.8 25.6754C28.6623 32.793 31.6801 39.6716 36.665 44.8464C42.6423 51.0805 51.1569 54.9075 59.8198 54.7632C63.2598 54.8714 66.6234 54.0736 69.9781 53.429C66.6773 65.4013 53.6045 73.3483 41.4926 71.437C34.1815 70.4994 27.4318 66.1541 23.3586 60.0192C18.7645 53.2397 17.6058 44.2379 20.3901 36.5253Z" fill="#FFD83D"/>
<path d="M57.9561 35.1504C62.2628 36.4982 66.5605 37.9767 70.4811 40.2576L70.746 40.3973C71.1098 43.1425 71.3747 45.9417 70.8897 48.6914C68.9182 47.853 67.3195 46.379 65.6489 45.0763C62.4335 42.3897 59.1507 39.3155 57.9561 35.1504Z" fill="#FF6F03"/>
</g>
<defs>
<clipPath id="clip0_59_2314">
<rect width="90" height="91" fill="white"/>
</clipPath>
</defs>
</svg>
